<svg width="1620" height="1037" viewBox="0 0 1620 1037" fill="none" xmlns="http://www.w3.org/2000/svg">
<g filter="url(#filter0_dd_168_100)">
<path d="M490.432 811.238L1568.43 -53.7622H1417.93H-23.0684V272.238H456.432L-23.0684 764.738V842.738H32.4316L767.932 117.738H356.432L479.432 -0.262207H1017.93L-23.0684 986.238H54.4316L840.932 272.238H969.146L356.432 811.238H490.432Z" fill="#D0D0D0" fill-opacity="0.5" shape-rendering="crispEdges"/>
<path d="M490.432 811.238L1568.43 -53.7622H1417.93H-23.0684V272.238H456.432L-23.0684 764.738V842.738H32.4316L767.932 117.738H356.432L479.432 -0.262207H1017.93L-23.0684 986.238H54.4316L840.932 272.238H969.146L356.432 811.238H490.432Z" stroke="white" stroke-opacity="0.25" shape-rendering="crispEdges"/>
</g>
<defs>
<filter id="filter0_dd_168_100" x="-54.3229" y="-84.2622" width="1674.18" height="1121" filterUnits="userSpaceOnUse" color-interpolation-filters="sRGB">
<feFlood flood-opacity="0" result="BackgroundImageFix"/>
<feColorMatrix in="SourceAlpha" type="matrix" values="0 0 0 0 0 0 0 0 0 0 0 0 0 0 0 0 0 0 127 0" result="hardAlpha"/>
<feOffset dx="10" dy="10"/>
<feGaussianBlur stdDeviation="20"/>
<feComposite in2="hardAlpha" operator="out"/>
<feColorMatrix type="matrix" values="0 0 0 0 0 0 0 0 0 0 0 0 0 0 0 0 0 0 0.25 0"/>
<feBlend mode="normal" in2="BackgroundImageFix" result="effect1_dropShadow_168_100"/>
<feColorMatrix in="SourceAlpha" type="matrix" values="0 0 0 0 0 0 0 0 0 0 0 0 0 0 0 0 0 0 127 0" result="hardAlpha"/>
<feOffset dx="-5" dy="-5"/>
<feGaussianBlur stdDeviation="10"/>
<feComposite in2="hardAlpha" operator="out"/>
<feColorMatrix type="matrix" values="0 0 0 0 1 0 0 0 0 1 0 0 0 0 1 0 0 0 0.5 0"/>
<feBlend mode="normal" in2="effect1_dropShadow_168_100" result="effect2_dropShadow_168_100"/>
<feBlend mode="normal" in="SourceGraphic" in2="effect2_dropShadow_168_100" result="shape"/>
</filter>
</defs>
</svg>
